<?xml version="1.0" standalone="no"?><!DOCTYPE svg PUBLIC "-//W3C//DTD SVG 1.1//EN" "http://www.w3.org/Graphics/SVG/1.1/DTD/svg11.dtd"><svg class="icon" width="200px" height="200.00px" viewBox="0 0 1024 1024" version="1.1" xmlns="http://www.w3.org/2000/svg"><path d="M454.4 883.2C236.8 883.2 64 704 64 492.8s172.8-390.4 390.4-390.4 390.4 172.8 390.4 390.4c0 19.2 12.8 32 32 32s32-12.8 32-32C908.8 243.2 704 38.4 454.4 38.4 204.8 38.4 0 243.2 0 492.8c0 249.6 204.8 454.4 454.4 454.4 19.2 0 32-12.8 32-32s-12.8-32-32-32z" fill="#707070" /><path d="M454.4 416c38.4 0 76.8 32 76.8 70.4 0 19.2 12.8 32 32 32s32-12.8 32-32c0-76.8-64-134.4-134.4-134.4S320 416 320 492.8s64 134.4 134.4 134.4c19.2 0 32-12.8 32-32s-12.8-32-32-32C416 563.2 384 531.2 384 492.8s32-76.8 70.4-76.8zM908.8 761.6h-25.6c-19.2 0-32 6.4-51.2 12.8V608c0-19.2-12.8-32-32-32H601.6c-12.8 0-25.6 6.4-32 19.2l-51.2 140.8c-6.4 12.8 0 25.6 6.4 32 6.4 6.4 12.8 6.4 25.6 6.4h12.8l217.6-83.2v185.6c6.4 57.6 51.2 102.4 108.8 102.4h25.6c64 0 115.2-51.2 115.2-115.2s-57.6-102.4-121.6-102.4z m-307.2-70.4l19.2-51.2h128l-147.2 51.2z m307.2 230.4h-25.6c-25.6 0-51.2-19.2-51.2-51.2s19.2-51.2 51.2-51.2h25.6c25.6 0 51.2 19.2 51.2 51.2s-19.2 51.2-51.2 51.2z" fill="#707070" /></svg>